<?xml version="1.0" encoding="UTF-8"?>
<svg width="100px" height="69px" viewBox="0 0 100 69" version="1.1" xmlns="http://www.w3.org/2000/svg" xmlns:xlink="http://www.w3.org/1999/xlink">
    <!-- Generator: Sketch 48.2 (47327) - http://www.bohemiancoding.com/sketch -->
    <title>serviceicon</title>
    <desc>Created with Sketch.</desc>
    <defs></defs>
    <g id="concept-2d-copy-12" stroke="none" stroke-width="1" fill="none" fill-rule="evenodd" transform="translate(-759.000000, -55.000000)">
        <g id="serviceicon" transform="translate(759.000000, 55.000000)" fill="#0DB14B">
            <path d="M1.15787366,69 L98.8439517,69 C99.4219759,69 100,68.5409784 100,67.8479529 L100,7.82399736 C100,7.24797383 99.5393841,6.6719503 98.8439517,6.6719503 L93.4114497,6.6719503 L93.4114497,4.48490418 C93.4114497,3.90888065 93.0637336,3.56236794 92.4857094,3.44985902 C92.3683012,3.44985902 83.8153475,1.49230067 74.4490445,0.569741389 C61.6145967,-0.699353645 53.4101221,0.340230575 50.054114,3.79639478 C50.054114,3.79639478 50.054114,3.91339668 49.9367058,3.91339668 C49.9367058,3.91339668 49.9367058,3.79639478 49.8192975,3.79639478 C46.5814375,0.340253616 38.3762694,-0.811793437 25.4243671,0.569741389 C16.0675437,1.37527573 7.51486745,3.33281104 7.39695052,3.33281104 C6.93633465,3.44981294 6.4712102,3.90883457 6.4712102,4.3678562 L6.4712102,6.55490232 L1.15604826,6.55939531 C0.578024131,6.55939531 0,7.01841694 0,7.71144236 L0,67.847158 C0,68.4231816 0.460615869,68.9992051 1.15604826,68.9992051 L1.15787366,69 Z M51,5.82287719 C51.2302988,5.59025582 51.3477024,5.35763445 51.5780013,5.1204592 C57.0102884,-0.717844481 81.0560661,3.01773574 91,5.23904682 L91,60 C88.2274435,59.4161696 81.5217039,58.1298746 74.3558754,57.3134462 C70.7704179,56.9622372 67.6501358,56.7296158 64.8775793,56.7296158 C58.4021155,56.7296158 53.7781053,57.6646552 51.1234611,59.6487677 L51.1189527,5.82194306 L51,5.82287719 Z M9,5.23120557 C18.9434715,3.01900298 42.9841628,-0.71368104 48.4219987,5.11285786 C48.6522976,5.34500862 48.7697012,5.57715938 49,5.8138548 L49,59.6494782 C45.1842668,56.8546264 37.3220623,56.0351885 25.6499046,57.3188813 C18.4836137,58.0198782 11.7778741,59.4173508 9.00578001,60 L9,5.23120557 Z M2.00158059,8 L6.30078884,8 L6.30078884,60.1109185 C6.30078884,60.4584402 6.41882182,60.8059619 6.7638556,61.036141 C6.99538897,61.26632 7.34495533,61.3836626 7.69452168,61.26632 C16.9921174,59.185673 42.5605056,55.0290006 48.2529585,60.9187984 C48.6025249,61.26632 48.9520912,61.6138417 49.415158,61.8440208 L49.533191,61.8440208 L49.6512239,61.8440208 L50.0007903,61.8440208 L50.3503566,61.8440208 L50.4683896,61.8440208 L50.5864226,61.8440208 C50.935989,61.6138417 51.2855553,61.26632 51.7486221,60.9187984 C57.4415399,54.9116349 82.8967299,59.1856961 92.3070589,61.26632 C92.6566253,61.3836626 93.0061916,61.26632 93.237725,61.036141 C93.4692584,60.8059619 93.7007917,60.4584402 93.7007917,60.1109185 L93.7007917,8 L98,8 L98,66 L2,66 L2.00158059,8 Z" id="Page-1"></path>
        </g>
    </g>
</svg>