<?xml version="1.0" encoding="UTF-8"?>
<svg width="88px" height="86px" viewBox="0 0 88 86" version="1.1" xmlns="http://www.w3.org/2000/svg" xmlns:xlink="http://www.w3.org/1999/xlink">
    <!-- Generator: Sketch 48.2 (47327) - http://www.bohemiancoding.com/sketch -->
    <title>tools</title>
    <desc>Created with Sketch.</desc>
    <defs></defs>
    <g id="concept-2d-copy-12" stroke="none" stroke-width="1" fill="none" fill-rule="evenodd" transform="translate(-151.000000, -50.000000)" stroke-linecap="round" stroke-linejoin="round">
        <g id="tools" transform="translate(152.000000, 51.000000)" stroke-width="2">
            <g id="Group-13" stroke="#97A2A2">
                <path d="M32.734381,66.5235528 L17.9000849,81.0030787 C13.8062844,84.9989738 7.16426482,84.9989738 3.07035033,81.0030787 C-1.02345011,77.0027312 -1.02345011,70.5240116 3.07035033,66.5235528 L17.9000849,52.0484793 C19.4369991,53.5486374 21.927058,53.5486374 23.4639723,52.0484793 C25.0008865,50.5483212 25.0008865,48.1178134 23.4639723,46.6219964 L27.1702655,43 L42,57.479526 L38.2937068,61.1015224 C36.7567925,59.5970231 34.2667336,59.5970231 32.7298194,61.1015224 C31.1973526,62.5928869 31.1973526,65.0235059 32.7342669,66.5236641 L32.734381,66.5235528 Z" id="Stroke-1"></path>
                <path d="M23,60 L11,72 L23,60 Z" id="Stroke-2"></path>
                <path d="M32.6419499,19.6109921 C34.0289182,14.4076527 32.6949591,8.63904265 28.6136812,4.55821609 C23.8124372,-0.243135476 16.6707832,-1.24578695 10.8745992,1.52368863 L21.2632922,11.9126144 C23.2907128,13.9400803 23.2907128,17.2307266 21.2632922,19.2626026 C19.2314618,21.2944786 15.9408892,21.2944786 13.9090587,19.2626026 L3.52036572,8.87367689 C0.755362079,14.66886 1.75799109,21.8153101 6.55923511,26.6165486 C10.6361257,30.6979405 16.4090164,32.0274969 21.6116739,30.6449075 L35.9664448,45 L47,33.9706076 L32.6419499,19.6109921 Z" id="Stroke-3"></path>
                <path d="M66.3895316,51.3550925 L52.0296199,37 L41,48.0293924 L55.3553885,62.3844849 C53.9683606,67.5878243 55.3023771,73.3608443 59.3838306,77.4417839 C64.1852812,82.2431355 71.3272425,83.245787 77.1236758,80.4763114 L66.7389459,70.0917956 C64.707028,68.0599197 64.707028,64.7692734 66.7389459,62.7373974 C68.7664537,60.7055214 72.0571679,60.7055214 74.0890858,62.7373974 L84.4782258,73.1263231 C87.2433484,67.33114 86.2450863,60.189213 81.4436357,55.3868437 C77.3665697,51.3010418 71.5890205,49.9714854 66.3905493,51.3540748 L66.3895316,51.3550925 Z" id="Stroke-4"></path>
                <polygon id="Stroke-5" points="36.6950068 51 33 47.3863089 64.383541 16.6565917 66.2332587 11.2317186 73.614415 4 81 11.2317186 73.614415 18.4634373 68.0741191 20.2702828"></polygon>
            </g>
            <path d="M32.734381,66.5235528 L17.9000849,81.0030787 C13.8062844,84.9989738 7.16426482,84.9989738 3.07035033,81.0030787 C-1.02345011,77.0027312 -1.02345011,70.5240116 3.07035033,66.5235528 L17.9000849,52.0484793 C19.4369991,53.5486374 21.927058,53.5486374 23.4639723,52.0484793 C25.0008865,50.5483212 25.0008865,48.1178134 23.4639723,46.6219964 L27.1702655,43 L42,57.479526 L38.2937068,61.1015224 C36.7567925,59.5970231 34.2667336,59.5970231 32.7298194,61.1015224 C31.1973526,62.5928869 31.1973526,65.0235059 32.7342669,66.5236641 L32.734381,66.5235528 Z" id="Stroke-1" stroke="#0DB14B"></path>
            <path d="M23,60 L11,72 L23,60 Z" id="Stroke-2" stroke="#0DB14B"></path>
            <path d="M32.6419499,19.6109921 C34.0289182,14.4076527 32.6949591,8.63904265 28.6136812,4.55821609 C23.8124372,-0.243135476 16.6707832,-1.24578695 10.8745992,1.52368863 L21.2632922,11.9126144 C23.2907128,13.9400803 23.2907128,17.2307266 21.2632922,19.2626026 C19.2314618,21.2944786 15.9408892,21.2944786 13.9090587,19.2626026 L3.52036572,8.87367689 C0.755362079,14.66886 1.75799109,21.8153101 6.55923511,26.6165486 C10.6361257,30.6979405 16.4090164,32.0274969 21.6116739,30.6449075 L35.9664448,45 L47,33.9706076 L32.6419499,19.6109921 Z" id="Stroke-3" stroke="#0DB14B"></path>
            <path d="M66.3895316,51.3550925 L52.0296199,37 L41,48.0293924 L55.3553885,62.3844849 C53.9683606,67.5878243 55.3023771,73.3608443 59.3838306,77.4417839 C64.1852812,82.2431355 71.3272425,83.245787 77.1236758,80.4763114 L66.7389459,70.0917956 C64.707028,68.0599197 64.707028,64.7692734 66.7389459,62.7373974 C68.7664537,60.7055214 72.0571679,60.7055214 74.0890858,62.7373974 L84.4782258,73.1263231 C87.2433484,67.33114 86.2450863,60.189213 81.4436357,55.3868437 C77.3665697,51.3010418 71.5890205,49.9714854 66.3905493,51.3540748 L66.3895316,51.3550925 Z" id="Stroke-4" stroke="#0DB14B"></path>
            <polygon id="Stroke-5" stroke="#0DB14B" points="36.6950068 51 33 47.3863089 64.383541 16.6565917 66.2332587 11.2317186 73.614415 4 81 11.2317186 73.614415 18.4634373 68.0741191 20.2702828"></polygon>
        </g>
    </g>
</svg>